<svg xmlns="http://www.w3.org/2000/svg" viewBox="0 0 28 16" width="28" height="16">
    <!-- Zzz -->
    <text x="21" y="5" font-family="sans-serif" font-size="3.5" fill="#FFFFFF" font-weight="bold" opacity="0.8">z</text>
    <text x="23" y="2.8" font-family="sans-serif" font-size="4.5" fill="#FFFFFF" font-weight="bold" opacity="0.6">Z</text>

    <!-- Tail -->
    <path d="M 6 10.2 C 4 10.2, 4 14.2, 9 14.2 C 11 14.2, 11 13.2, 11 13.2" fill="none" stroke="#1E272E" stroke-width="1.8" stroke-linecap="round"/>
    <path d="M 6 10.2 C 4 10.2, 4 14.2, 9 14.2 C 11 14.2, 11 13.2, 11 13.2" fill="none" stroke="#2D3436" stroke-width="1" stroke-linecap="round"/>
    
    <!-- Body (slightly flattened/breathing) -->
    <ellipse cx="11.5" cy="10.2" rx="5.6" ry="4.3" fill="#2D3436" stroke="#1E272E" stroke-width="1" />
    
    <!-- Stripe on body -->
    
    
    <!-- Head -->
    <circle cx="16.5" cy="9.7" r="3.8" fill="#2D3436" stroke="#1E272E" stroke-width="1" />
    <ellipse cx="14" cy="11.2" rx="2" ry="2.3" fill="#FFFFFF" />
    
    <!-- Ears -->
    <polygon points="13.5,6.7 14.5,3.7 16,6.2" fill="#2D3436" stroke="#1E272E" stroke-width="1" stroke-linejoin="round"/>
    <polygon points="13.9,6.4 14.6,4.4 15.5,6.0" fill="#FF8080" />
    
    <polygon points="16,6.2 17.5,3.7 18.5,6.7" fill="#2D3436" stroke="#1E272E" stroke-width="1" stroke-linejoin="round"/>
    <polygon points="16.5,6.0 17.4,4.4 18.1,6.4" fill="#FF8080" />
    
    <!-- Sleeping Eyes -->
    <path d="M 15.2 10 Q 16 10.7 16.5 10" fill="none" stroke="#1E272E" stroke-width="0.8" stroke-linecap="round" />
    <path d="M 17.2 10 Q 18 10.7 18.5 10" fill="none" stroke="#1E272E" stroke-width="0.8" stroke-linecap="round" />
    
    <!-- Nose -->
    <polygon points="16.7,10.8 17.1,10.8 16.9,11.1" fill="#FF8080" />
  </svg>